<mxfile host="65bd71144e">
    <diagram id="GW-u0Aq24kYiMsKwpB8_" name="Page-1">
        <mxGraphModel dx="1446" dy="1813" grid="1" gridSize="10" guides="1" tooltips="1" connect="1" arrows="1" fold="1" page="1" pageScale="1" pageWidth="850" pageHeight="1100" math="0" shadow="0">
            <root>
                <mxCell id="0"/>
                <mxCell id="1" parent="0"/>
                <mxCell id="Gcle7Ykop9rfLlNQdrV3-3" style="edgeStyle=orthogonalEdgeStyle;rounded=0;orthogonalLoop=1;jettySize=auto;html=1;entryX=0;entryY=0.5;entryDx=0;entryDy=0;" parent="1" source="Gcle7Ykop9rfLlNQdrV3-1" target="Gcle7Ykop9rfLlNQdrV3-2" edge="1">
                    <mxGeometry relative="1" as="geometry"/>
                </mxCell>
                <mxCell id="Gcle7Ykop9rfLlNQdrV3-1" value="Frontend search query" style="rounded=1;whiteSpace=wrap;html=1;fillColor=#dae8fc;strokeColor=#6c8ebf;" parent="1" vertex="1">
                    <mxGeometry x="140" y="-20" width="120" height="100" as="geometry"/>
                </mxCell>
                <mxCell id="Gcle7Ykop9rfLlNQdrV3-5" style="edgeStyle=orthogonalEdgeStyle;rounded=0;orthogonalLoop=1;jettySize=auto;html=1;entryX=0;entryY=0.5;entryDx=0;entryDy=0;" parent="1" source="Gcle7Ykop9rfLlNQdrV3-2" target="Gcle7Ykop9rfLlNQdrV3-4" edge="1">
                    <mxGeometry relative="1" as="geometry"/>
                </mxCell>
                <mxCell id="Gcle7Ykop9rfLlNQdrV3-2" value="TMDB movie search request" style="rounded=0;whiteSpace=wrap;html=1;" parent="1" vertex="1">
                    <mxGeometry x="360" width="120" height="60" as="geometry"/>
                </mxCell>
                <mxCell id="Gcle7Ykop9rfLlNQdrV3-8" style="edgeStyle=orthogonalEdgeStyle;rounded=0;orthogonalLoop=1;jettySize=auto;html=1;entryX=0;entryY=0.5;entryDx=0;entryDy=0;" parent="1" source="Gcle7Ykop9rfLlNQdrV3-4" target="Gcle7Ykop9rfLlNQdrV3-7" edge="1">
                    <mxGeometry relative="1" as="geometry"/>
                </mxCell>
                <mxCell id="Gcle7Ykop9rfLlNQdrV3-4" value="RT scraper gathers ratings metadata to add" style="rounded=0;whiteSpace=wrap;html=1;" parent="1" vertex="1">
                    <mxGeometry x="520" width="120" height="60" as="geometry"/>
                </mxCell>
                <mxCell id="Gcle7Ykop9rfLlNQdrV3-12" style="edgeStyle=orthogonalEdgeStyle;rounded=0;orthogonalLoop=1;jettySize=auto;html=1;entryX=0;entryY=0.5;entryDx=0;entryDy=0;" parent="1" source="Gcle7Ykop9rfLlNQdrV3-7" target="Gcle7Ykop9rfLlNQdrV3-11" edge="1">
                    <mxGeometry relative="1" as="geometry"/>
                </mxCell>
                <mxCell id="Gcle7Ykop9rfLlNQdrV3-7" value="TMDB loads posters to display" style="rounded=0;whiteSpace=wrap;html=1;" parent="1" vertex="1">
                    <mxGeometry x="680" width="120" height="60" as="geometry"/>
                </mxCell>
                <mxCell id="8" style="edgeStyle=orthogonalEdgeStyle;rounded=0;orthogonalLoop=1;jettySize=auto;html=1;entryX=0;entryY=0.5;entryDx=0;entryDy=0;" edge="1" parent="1" source="Gcle7Ykop9rfLlNQdrV3-9" target="7">
                    <mxGeometry relative="1" as="geometry"/>
                </mxCell>
                <mxCell id="Gcle7Ykop9rfLlNQdrV3-9" value="Simple frontend display of metadata:&lt;br&gt;&lt;br&gt;Poster Image&lt;br&gt;&lt;span&gt;Title, Original Title&lt;br&gt;&lt;/span&gt;Genres&lt;br&gt;Overview&lt;br&gt;Release Date&lt;br&gt;RT rating&lt;br&gt;RT audience rating" style="rounded=1;whiteSpace=wrap;html=1;fillColor=#dae8fc;strokeColor=#6c8ebf;" parent="1" vertex="1">
                    <mxGeometry x="140" y="140" width="120" height="180" as="geometry"/>
                </mxCell>
                <mxCell id="5" style="edgeStyle=orthogonalEdgeStyle;rounded=0;orthogonalLoop=1;jettySize=auto;html=1;entryX=0;entryY=0.5;entryDx=0;entryDy=0;" edge="1" parent="1" source="Gcle7Ykop9rfLlNQdrV3-11" target="Gcle7Ykop9rfLlNQdrV3-9">
                    <mxGeometry relative="1" as="geometry">
                        <Array as="points">
                            <mxPoint x="900" y="110"/>
                            <mxPoint x="120" y="110"/>
                            <mxPoint x="120" y="230"/>
                        </Array>
                    </mxGeometry>
                </mxCell>
                <mxCell id="Gcle7Ykop9rfLlNQdrV3-11" value="Use genre_dict to display genres" style="rounded=0;whiteSpace=wrap;html=1;" parent="1" vertex="1">
                    <mxGeometry x="840" width="120" height="60" as="geometry"/>
                </mxCell>
                <mxCell id="3" value="Frontend" style="swimlane;rounded=1;" vertex="1" parent="1">
                    <mxGeometry x="100" y="-90" width="200" height="440" as="geometry"/>
                </mxCell>
                <mxCell id="6" value="Backend" style="swimlane;rounded=1;" vertex="1" parent="1">
                    <mxGeometry x="330" y="-90" width="660" height="440" as="geometry"/>
                </mxCell>
                <mxCell id="7" value="Add button to add movie into list db" style="rounded=0;whiteSpace=wrap;html=1;" vertex="1" parent="6">
                    <mxGeometry x="30" y="290" width="120" height="60" as="geometry"/>
                </mxCell>
                <mxCell id="14" value="Backend" style="swimlane;rounded=1;" vertex="1" parent="1">
                    <mxGeometry x="1380" y="530" width="660" height="440" as="geometry"/>
                </mxCell>
                <mxCell id="16" value="Frontend" style="swimlane;rounded=1;" vertex="1" parent="1">
                    <mxGeometry x="1150" y="530" width="200" height="440" as="geometry"/>
                </mxCell>
                <mxCell id="17" value="Search and Add" style="swimlane;rounded=1;" vertex="1" parent="1">
                    <mxGeometry x="50" y="-160" width="990" height="580" as="geometry"/>
                </mxCell>
                <mxCell id="18" value="Main List Display" style="swimlane;rounded=1;" vertex="1" parent="1">
                    <mxGeometry x="50" y="480" width="990" height="580" as="geometry"/>
                </mxCell>
                <mxCell id="22" style="edgeStyle=orthogonalEdgeStyle;rounded=0;orthogonalLoop=1;jettySize=auto;html=1;" edge="1" parent="18" source="20" target="21">
                    <mxGeometry relative="1" as="geometry"/>
                </mxCell>
                <mxCell id="20" value="Loading the Movie List" style="rounded=1;whiteSpace=wrap;html=1;fillColor=#dae8fc;strokeColor=#6c8ebf;" vertex="1" parent="18">
                    <mxGeometry x="90" y="70" width="120" height="100" as="geometry"/>
                </mxCell>
                <mxCell id="24" style="edgeStyle=orthogonalEdgeStyle;rounded=0;orthogonalLoop=1;jettySize=auto;html=1;entryX=0;entryY=0.5;entryDx=0;entryDy=0;" edge="1" parent="18" source="21" target="23">
                    <mxGeometry relative="1" as="geometry"/>
                </mxCell>
                <mxCell id="21" value="Python reads DB" style="rounded=0;whiteSpace=wrap;html=1;" vertex="1" parent="18">
                    <mxGeometry x="310" y="90" width="120" height="60" as="geometry"/>
                </mxCell>
                <mxCell id="26" style="edgeStyle=orthogonalEdgeStyle;rounded=0;orthogonalLoop=1;jettySize=auto;html=1;" edge="1" parent="18" source="23" target="25">
                    <mxGeometry relative="1" as="geometry"/>
                </mxCell>
                <mxCell id="23" value="Sends information to Frontend" style="rounded=0;whiteSpace=wrap;html=1;" vertex="1" parent="18">
                    <mxGeometry x="470" y="90" width="120" height="60" as="geometry"/>
                </mxCell>
                <mxCell id="28" style="edgeStyle=orthogonalEdgeStyle;rounded=0;orthogonalLoop=1;jettySize=auto;html=1;entryX=0;entryY=0.5;entryDx=0;entryDy=0;" edge="1" parent="18" source="25" target="27">
                    <mxGeometry relative="1" as="geometry"/>
                </mxCell>
                <mxCell id="25" value="Grab genre info and poster img" style="rounded=0;whiteSpace=wrap;html=1;" vertex="1" parent="18">
                    <mxGeometry x="630" y="90" width="120" height="60" as="geometry"/>
                </mxCell>
                <mxCell id="27" value="Grab genre info and poster img" style="rounded=0;whiteSpace=wrap;html=1;" vertex="1" parent="18">
                    <mxGeometry x="790" y="90" width="120" height="60" as="geometry"/>
                </mxCell>
            </root>
        </mxGraphModel>
    </diagram>
</mxfile>